<svg xmlns="http://www.w3.org/2000/svg" data-name="Layer 1" viewBox="0 0 100 125" x="0px" y="0px"><title>Cocktail_Glassware_01_Perspective</title><path d="M44.4727,41.7666c2.1879,3.3818,2.3515,6.6484,2.6767,13.1567l.083,1.6324c.3994,7.706.0293,21.0249-.6489,23.3632-.0508.1753-.1.3589-.15.5479-.4639,1.7539-.9443,3.5674-4.84,4.24-3.4839.6-6.045.9732-7.2906,1.1456l-.0088.0009-.04.0059H34.251a.9894.9894,0,0,0-.1226.0249,1.9953,1.9953,0,0,0-1.5493,1.8115l-.0483.686c0,.7164,0,2.6187,17.4692,2.6187s17.4692-1.9023,17.4663-2.6924l-.0454-.6133A1.9947,1.9947,0,0,0,65.748,85.86v-.001l-.0424-.0059-.003,0-.0156-.0019c-1.249-.1729-3.8061-.5454-7.2808-1.1441-3.8955-.6723-4.3759-2.4858-4.84-4.24-.05-.189-.0991-.3726-.15-.5483-.6782-2.3365-1.0483-15.6558-.6489-23.3628l.083-1.6324c.3252-6.5083.4888-9.7749,2.6767-13.1567,1.4371-2.22,21.03-28.3584,21.2222-28.6138a1.0036,1.0036,0,0,0,.2017-.6025c0-1.0742-.64-2.0259-8.503-2.7988C63.5151,9.2671,56.9639,9,50,9s-13.5151.2671-18.4482.7515c-7.8633.7729-8.503,1.7246-8.503,2.7988a1.0008,1.0008,0,0,0,.2.6C23.4463,13.4141,43.0479,39.5645,44.4727,41.7666ZM53.8486,40.68c-2.48,3.8325-2.6631,7.4951-2.9956,14.1435l-.0825,1.6289c-.3911,7.545-.082,21.2432.7251,24.0235.0469.1611.0913.33.1372.5034.5068,1.9146,1.273,4.8081,6.4336,5.6982,3.3955.585,5.9253.9566,7.2266,1.1377a1.0074,1.0074,0,0,0,.1338.0279l.0058.0747C63.9282,88.4077,58.2681,89,50,89c-8.2593,0-13.916-.5908-15.4277-1.0811l.0073-.0864c1.2593-.1743,3.8437-.55,7.354-1.1553,5.1606-.89,5.9268-3.7836,6.4336-5.6982.0459-.1738.09-.3423.1372-.5029.8071-2.7823,1.1162-16.48.7251-24.024l-.0825-1.6289c-.3325-6.6484-.5157-10.311-2.9956-14.1435-1.2308-1.9021-14.91-20.194-19.6879-26.574C32.89,15.548,47.8818,15.6006,50,15.6006s17.1066-.0525,23.5346-1.4944C68.76,20.4827,55.0269,38.8588,53.8486,40.68ZM50,11c13.249,0,22.1147.9438,24.5518,1.7485l-.12.16C71.5554,13.7249,62.9913,14.6006,50,14.6006c-12.994,0-21.5589-.8762-24.4337-1.6927l-.119-.1589C27.8838,11.9443,36.75,11,50,11Z"/><text x="0" y="115" fill="#000000" font-size="5px" font-weight="bold" font-family="'Helvetica Neue', Helvetica, Arial-Unicode, Arial, Sans-serif">Created by Bohdan Burmich</text><text x="0" y="120" fill="#000000" font-size="5px" font-weight="bold" font-family="'Helvetica Neue', Helvetica, Arial-Unicode, Arial, Sans-serif">from the Noun Project</text></svg>