<svg xmlns="http://www.w3.org/2000/svg" data-name="Layer 1" viewBox="0 0 100 125" x="0px" y="0px"><title>Cocktail_Glassware_01_Perspective</title><path d="M50,4C31.5745,4,31.5745,5.9521,31.5754,6.7363L35.73,91.2441A3.2969,3.2969,0,0,0,37.8474,93.97,34.6331,34.6331,0,0,0,49.9705,96a35.0387,35.0387,0,0,0,12.1733-2.0322,3.3183,3.3183,0,0,0,2.1318-2.792l4.149-84.4883C68.4246,5.9521,68.4246,4,50,4Zm0,2c8.8545,0,14.872.6309,16.4008,1.1484l-.0051.1062C64.53,7.7866,58.6973,8.376,50,8.376c-8.7,0-14.5341-.59-16.3977-1.1218l-.0052-.1048C35.1238,6.6309,41.1423,6,50,6ZM62.283,91.0146a1.3094,1.3094,0,0,1-.8433,1.0821A33.0076,33.0076,0,0,1,49.9705,94a32.63,32.63,0,0,1-11.4141-1.8994l0-.001a1.2909,1.2909,0,0,1-.8335-1.0166L33.65,8.2256c3.7228,1.05,13.0188,1.15,16.35,1.15s12.6242-.1,16.3479-1.15Z"/><text x="0" y="115" fill="#000000" font-size="5px" font-weight="bold" font-family="'Helvetica Neue', Helvetica, Arial-Unicode, Arial, Sans-serif">Created by Bohdan Burmich</text><text x="0" y="120" fill="#000000" font-size="5px" font-weight="bold" font-family="'Helvetica Neue', Helvetica, Arial-Unicode, Arial, Sans-serif">from the Noun Project</text></svg>