<svg xmlns="http://www.w3.org/2000/svg" data-name="Layer 1" viewBox="0 0 100 125" x="0px" y="0px"><title>Cocktail_Glassware_01_Perspective</title><path d="M65.3464,83.5122h-.0005c-1.5708-.2021-6.9267-1.0171-9.8774-3.0063-2.9692-2.0025-2.9067-14.9473-2.8652-23.5132.0053-1.08.01-2.1245.01-3.1167,0-6.1377,3.0083-9.3267,6.4917-13.0186a39.6933,39.6933,0,0,0,5.2442-6.435c4.4448-7.2032,4.3608-19.1177,4.3447-20.1475.0015-.0205.0019-.041.0019-.0615,0-.7422,0-2.7134-18.6953-2.7134s-18.6953,1.9712-18.6953,2.7134c0,.019.0005.0386.0015.0576-.02,1.1577-.1109,12.93,4.3447,20.1514a39.6888,39.6888,0,0,0,5.2442,6.4345c3.4834,3.6924,6.4917,6.8809,6.4917,13.0191,0,.9927.0048,2.0386.01,3.1191.0415,8.565.1045,21.5083-2.8652,23.5108-2.95,1.9892-8.3062,2.8037-9.878,3.0063a1.7643,1.7643,0,0,0-1.5473,1.6768l-.001.7714c0,.76,0,2.54,16.8945,2.54s16.8946-1.78,16.8946-2.5415l-.003-.8228A1.753,1.753,0,0,0,65.3464,83.5122ZM50.0007,13.5c9.0664,0,15.2007.6509,16.6963,1.1792l-.0005.0955c-1.8419.5443-7.7838,1.153-16.6958,1.153-8.91,0-14.8512-.6084-16.6945-1.1525l-.0008-.0965C34.803,14.15,40.9363,13.5,50.0007,13.5Zm0,73c-7.9819,0-13.4526-.5645-14.8921-1.03,2.2706-.3042,7.4126-1.1953,10.542-3.3056,3.5728-2.4087,3.8091-12.3858,3.7471-25.1787-.0054-1.0772-.01-2.12-.01-3.1094,0-6.9326-3.418-10.5557-7.0372-14.3916a38.1638,38.1638,0,0,1-4.9965-6.1123c-3.384-5.4843-3.947-14.1582-4.0329-17.6326,3.7207,1.0855,13.273,1.1882,16.68,1.1882s12.9647-.1029,16.6832-1.1892c-.0787,3.4589-.6271,12.1085-4.0367,17.6336A38.1339,38.1339,0,0,1,57.65,39.4849c-3.6186,3.8354-7.0366,7.4585-7.0366,14.3911,0,.9887-.0049,2.0307-.01,3.1074-.062,12.7935.1743,22.7715,3.747,25.1807,3.13,2.11,8.272,3.0014,10.5425,3.3056C63.4529,85.9355,57.9822,86.5,50.0007,86.5Z"/><text x="0" y="115" fill="#000000" font-size="5px" font-weight="bold" font-family="'Helvetica Neue', Helvetica, Arial-Unicode, Arial, Sans-serif">Created by Bohdan Burmich</text><text x="0" y="120" fill="#000000" font-size="5px" font-weight="bold" font-family="'Helvetica Neue', Helvetica, Arial-Unicode, Arial, Sans-serif">from the Noun Project</text></svg>