<svg xmlns="http://www.w3.org/2000/svg" data-name="Layer 1" viewBox="0 0 100 125" x="0px" y="0px"><title>Cocktail_Glassware_01_Perspective</title><path d="M69.0059,17.2632C63.9238,16.771,57.1738,16.5,50,16.5s-13.9238.271-19.0059.7632c-8.0786.7827-8.7358,1.7431-8.7358,2.8266a.97.97,0,0,0,.0063.1119l6.3672,56.4741A4.5323,4.5323,0,0,0,31.54,80.42,52.6826,52.6826,0,0,0,49.9556,83.5a53.2609,53.2609,0,0,0,18.4931-3.083,4.53,4.53,0,0,0,2.92-3.7495l6.3663-56.4658a.97.97,0,0,0,.0063-.1119C77.7417,19.0063,77.0845,18.0459,69.0059,17.2632ZM50,18.5c14.129,0,23.3929,1.025,25.53,1.8618C72.9256,21.2184,63.9172,22.18,50,22.18s-22.9256-.9613-25.53-1.8179C26.6071,19.525,35.871,18.5,50,18.5ZM69.3818,76.4434a2.54,2.54,0,0,1-1.6372,2.1015A51.2215,51.2215,0,0,1,49.9556,81.5a50.65,50.65,0,0,1-17.7071-2.95,2.5406,2.5406,0,0,1-1.6294-2.0986L24.4012,21.3029C29.9286,23.1177,47.6512,23.18,50,23.18s20.0714-.062,25.5988-1.8768Z"/><text x="0" y="115" fill="#000000" font-size="5px" font-weight="bold" font-family="'Helvetica Neue', Helvetica, Arial-Unicode, Arial, Sans-serif">Created by Bohdan Burmich</text><text x="0" y="120" fill="#000000" font-size="5px" font-weight="bold" font-family="'Helvetica Neue', Helvetica, Arial-Unicode, Arial, Sans-serif">from the Noun Project</text></svg>